/vscmnt/brussel_pixiu_data/_data_brussel/112/vsc11236/PredSimResults/SUBJ10mtu3D/worker1.mot
version=1
nRows=4
nColumns=50
inDegrees=yes
endheader
                time	         pelvis_tilt	         pelvis_list	     pelvis_rotation	           pelvis_tx	           pelvis_ty	           pelvis_tz	       hip_flexion_r	     hip_adduction_r	      hip_rotation_r	        knee_angle_r	       ankle_angle_r	         mtp_angle_r	       hip_flexion_l	     hip_adduction_l	      hip_rotation_l	        knee_angle_l	       ankle_angle_l	         mtp_angle_l	    lumbar_extension	      lumbar_bending	     lumbar_rotation	 ercspn_r/activation	 intobl_r/activation	 extobl_r/activation	    abd_r/activation	    add_r/activation	hamstrings_r/activation	bifemsh_r/activation	glut_max_r/activation	iliopsoas_r/activation	rect_fem_r/activation	  vasti_r/activation	gastroc_r/activation	 soleus_r/activation	tib_ant_r/activation	 ercspn_l/activation	 intobl_l/activation	 extobl_l/activation	    abd_l/activation	    add_l/activation	hamstrings_l/activation	bifemsh_l/activation	glut_max_l/activation	iliopsoas_l/activation	rect_fem_l/activation	  vasti_l/activation	gastroc_l/activation	 soleus_l/activation	tib_ant_l/activation	
          1.62946025	         -6.01111623	          1.65830593	         -9.02505439	          1.97164690	          0.82493609	          0.01438960	        -12.76405059	         -0.27765461	          6.83910078	         -7.25150284	          9.42926631	         23.81868334	         31.60093894	         -0.65364124	         -2.51280699	         -5.74771591	          8.93674174	          0.25663812	         -5.14212442	         -0.41972477	          4.42419670	          0.06357633	          0.01000001	          0.01000006	          0.06355608	          0.01000004	          0.01000009	          0.15093826	          0.01971733	          0.25309444	          0.01000046	          0.01000002	          0.20767343	          0.22123980	          0.01926509	          0.09367180	          0.17266406	          0.01000012	          0.03067521	          0.06872918	          0.01375807	          0.17711757	          0.01573289	          0.03205680	          0.01107639	          0.01079724	          0.01000021	          0.01000003	          0.24300402	
          1.64032332	         -6.02647182	          1.53548377	         -8.96216987	          1.98700727	          0.82340202	          0.01480432	        -13.00334306	         -0.11946625	          6.33243802	         -8.79525454	          8.85347230	         25.37894274	         31.26501231	         -0.49010559	         -1.89339755	         -6.82049418	          8.58405491	          0.25521164	         -4.95817709	         -0.82393284	          4.55426276	          0.09596335	          0.01000005	          0.01000013	          0.05381315	          0.01309914	          0.01136035	          0.12779996	          0.01669479	          0.21429596	          0.01000057	          0.01000028	          0.17583781	          0.20837061	          0.01631182	          0.07931227	          0.14619527	          0.01000018	          0.02597282	          0.07611305	          0.01164919	          0.14996680	          0.05906165	          0.02714261	          0.01000088	          0.01000006	          0.01896118	          0.01647425	          0.24765535	
          1.65118639	         -6.03254398	          1.42870072	         -8.84515231	          2.00258733	          0.82199046	          0.01515922	        -13.14155437	          0.03235652	          5.77965694	        -10.55225572	          8.19429727	         26.84091744	         30.82812648	         -0.33212549	         -1.28499795	         -7.91969808	          8.19453304	          0.24888710	         -4.75673075	         -1.25866278	          4.66235060	          0.12551272	          0.01000002	          0.01000010	          0.04556378	          0.01109114	          0.01000031	          0.10820868	          0.01413555	          0.18144514	          0.01000090	          0.01000006	          0.14888248	          0.19162213	          0.01381128	          0.07992225	          0.12378406	          0.01000012	          0.07322384	          0.06583404	          0.03451459	          0.12697759	          0.08506438	          0.02298175	          0.01000024	          0.01000001	          0.01605451	          0.01394881	          0.29744553	
          1.66204945	         -6.03211995	          1.32878121	         -8.67219846	          2.01818478	          0.82090184	          0.01541281	        -13.10790888	          0.18975635	          5.17751246	        -12.60372288	          7.41686670	         28.13394477	         30.36188007	         -0.16149545	         -0.74798613	         -8.93824774	          7.69316474	          0.23728374	         -4.55799539	         -1.70469125	          4.74728418	          0.15713847	          0.01000002	          0.01000006	          0.03857901	          0.01239525	          0.01000166	          0.09162068	          0.01196864	          0.15363024	          0.01000064	          0.01120799	          0.12605930	          0.16887036	          0.01169406	          0.08627862	          0.10480839	          0.01000009	          0.12241392	          0.08218726	          0.02922486	          0.10751243	          0.11336878	          0.01945873	          0.01000034	          0.01000057	          0.01359344	          0.01181054	          0.31581397	
